# xmcd CD database file
#
# Track frame offsets:
#	150
#	18885
#	38365
#	62042
#	85802
#	109390
#	129345
#	148887
#	172565
#	190865
#	211470
#	234297
#	259165
#
# Disc length: 3662 seconds
#
# Revision: 0
# Processed by: cddbd v1.5.1PL2 Copyright (c) Steve Scherf et al.
# Submitted via: CDex 1.51
#
DISCID=a50e4c0d
DTITLE=中村あゆみ - Ｙｅｓ
DYEAR=2005
DGENRE=ナ〜ノ
TTITLE0=ＣＡＲＮＩＶＡＬ
TTITLE1=Ｓｕｒｖｉｖｏｒ
TTITLE2=君のＢｒｅａｔｈ
TTITLE3=Ｙｅｓ
TTITLE4=抱きしめて
TTITLE5=Ｄａｄｄｙ
TTITLE6=Ｌｏｔｔａ Ｌｏｖｅ
TTITLE7=愛と平和
TTITLE8=ヴィーナスのように
TTITLE9=シグナルＩＮＧ
TTITLE10=クリームシチュー
TTITLE11=Ｒａｉｎｙ Ｄａｙｓ
TTITLE12=Ｂｉｒｔｈｄａｙ ３９
EXTD=YEAR: 2005
EXTT0=
EXTT1=
EXTT2=
EXTT3=
EXTT4=
EXTT5=
EXTT6=
EXTT7=
EXTT8=
EXTT9=
EXTT10=
EXTT11=
EXTT12=
PLAYORDER=
